<svg id="Layer_1" enable-background="new 0 0 512 512" height="512" viewBox="0 0 512 512" width="512" xmlns="http://www.w3.org/2000/svg"><g><path d="m432.733 206.733h-353.467c-8.284 0-15-6.716-15-15 0-105.721 86.012-191.733 191.734-191.733s191.733 86.012 191.733 191.733c0 8.285-6.716 15-15 15z" fill="#82503c"/><path d="m255.984 0v206.733h176.749c8.284 0 15-6.716 15-15 0-105.721-86.011-191.733-191.733-191.733-.005 0-.011 0-.016 0z" fill="#50321e"/><path d="m222.8 321.294c0-86.408-118.017-111.45-153.107-32.487l-28.234 63.535c-10.944 24.625-8.713 52.807 5.966 75.385 14.682 22.587 39.529 36.073 66.465 36.073h93.91c8.284 0 15-6.716 15-15z" fill="#b46e5a"/><path d="m289.2 321.295c0-86.408 118.017-111.45 153.107-32.487l28.234 63.535c10.944 24.625 8.713 52.807-5.966 75.385-14.682 22.589-39.528 36.074-66.464 36.074h-93.911c-8.284 0-15-6.716-15-15z" fill="#82503c"/><path d="m416.666 319.2h-48.2c-8.284 0-15-6.716-15-15v-112.467c0-8.284 6.716-15 15-15h48.2c25.808 0 47.133 20.855 47.133 47.133v48.2c.001 25.744-20.796 47.134-47.133 47.134z" fill="#0a141e"/><path d="m143.533 319.2h-48.2c-25.744 0-47.133-20.796-47.133-47.134v-48.2c0-25.804 20.848-47.133 47.133-47.133h48.2c8.284 0 15 6.716 15 15v112.467c0 8.284-6.716 15-15 15z" fill="#283741"/><path d="m361.759 333.683-64.267-32.133c-25.981-12.994-57.003-12.994-82.982 0l-64.269 32.133c-4.649 2.325-10.171 2.077-14.594-.656-4.422-2.733-7.114-7.562-7.114-12.76v-128.534c0-6 3.576-11.424 9.091-13.787l53.397-22.887c30.362-13.006 49.979-42.756 49.979-75.792 0-8.284 6.716-15 15-15s15 6.716 15 15c0 33.036 19.617 62.786 49.976 75.792l53.4 22.888c5.515 2.363 9.091 7.787 9.091 13.787v128.533c0 5.198-2.692 10.026-7.114 12.76-4.43 2.736-9.95 2.978-14.594.656z" fill="#ffdcc8"/><path d="m297.492 301.55 64.267 32.133c4.645 2.322 10.165 2.081 14.594-.656 4.422-2.733 7.114-7.562 7.114-12.76v-128.534c0-6-3.576-11.424-9.091-13.787l-53.4-22.888c-30.36-13.005-49.976-42.755-49.976-75.791 0-8.284-6.716-15-15-15v227.538c14.25-.001 28.501 3.248 41.492 9.745z" fill="#ffbeb9"/><path d="m438.015 482.951-128.533-48.2c-5.507-2.065-11.714-.721-15.873 3.438l-37.594 37.593-37.594-37.593c-4.159-4.16-10.366-5.503-15.873-3.438l-128.533 48.2c-7.757 2.909-11.688 11.555-8.778 19.312 2.258 6.021 7.974 9.737 14.047 9.737h353.463c6.073 0 11.789-3.715 14.047-9.737 2.909-7.757-1.022-16.403-8.779-19.312z" fill="#283741"/><path d="m438.015 482.951-128.533-48.2c-5.507-2.065-11.714-.721-15.873 3.438l-37.594 37.593-.015-.015v36.233h176.747c6.073 0 11.789-3.715 14.047-9.737 2.909-7.757-1.022-16.403-8.779-19.312z" fill="#0a141e"/><path d="m256.015 512c-3.839 0-7.678-1.464-10.606-4.394l-48.2-48.2c-2.813-2.813-4.394-6.628-4.394-10.606v-58.2c0-8.284 6.716-15 15-15h96.4c8.284 0 15 6.716 15 15v58.2c0 3.978-1.58 7.793-4.394 10.606l-48.2 48.2c-2.928 2.93-6.767 4.394-10.606 4.394z" fill="#ffbeb9"/><path d="m304.216 375.6h-48.216v136.399c.005 0 .01.001.016.001 3.839 0 7.678-1.464 10.606-4.394l48.2-48.2c2.813-2.813 4.394-6.628 4.394-10.606v-58.2c0-8.284-6.716-15-15-15z" fill="#ffa0aa"/><circle clip-rule="evenodd" cx="207.8" cy="223.867" fill="#283741" fill-rule="evenodd" r="15"/><circle clip-rule="evenodd" cx="304.2" cy="223.867" fill="#0a141e" fill-rule="evenodd" r="15"/><path d="m256 426.909c-18.861 0-37.715-4.297-54.908-12.893l-21.159-10.579c-31.706-15.856-51.4-47.725-51.4-83.171 0-5.682 3.21-10.875 8.292-13.417l64.267-32.134c34.382-17.191 75.435-17.191 109.817-.001l64.267 32.134c5.082 2.541 8.292 7.735 8.292 13.417 0 35.446-19.694 67.315-51.397 83.17l-21.161 10.58c-17.191 8.595-36.054 12.894-54.91 12.894z" fill="#f0f5fa"/><path d="m310.908 414.016 21.161-10.58c31.703-15.855 51.397-47.724 51.397-83.17 0-5.682-3.21-10.875-8.292-13.417l-64.267-32.134c-17.196-8.597-36.06-12.895-54.924-12.892v165.086h.016c18.857 0 37.72-4.299 54.909-12.893z" fill="#dfe3e9"/><path d="m400.6 383.467h-80.333c-8.284 0-15-6.716-15-15s6.716-15 15-15h80.333c9.447 0 17.133-7.687 17.133-17.134v-32.133c0-8.284 6.716-15 15-15s15 6.716 15 15v32.133c0 25.989-21.144 47.134-47.133 47.134z" fill="#283741"/></g></svg>